<?xml version="1.0" encoding="UTF-8"?><svg id="Layer_1" xmlns="http://www.w3.org/2000/svg" viewBox="0 0 16.15 20.78"><defs><style>.cls-1{fill:#fff;}</style></defs><path class="cls-1" d="m8.08,20.78h0c-.2,0-.39-.08-.53-.23-.31-.33-7.55-8.17-7.55-12.47S3.62,0,8.08,0s8.08,3.62,8.08,8.08-7.24,12.14-7.55,12.47c-.14.15-.33.23-.53.23Zm0-19.33c-3.66,0-6.63,2.98-6.63,6.63,0,2.85,4.38,8.37,6.63,10.9,2.25-2.53,6.63-8.05,6.63-10.9,0-3.66-2.98-6.63-6.63-6.63Z"/><path class="cls-1" d="m8.08,11.36c-2,0-3.64-1.63-3.64-3.64s1.63-3.64,3.64-3.64,3.64,1.63,3.64,3.64-1.63,3.64-3.64,3.64Zm0-5.83c-1.21,0-2.19.98-2.19,2.19s.98,2.19,2.19,2.19,2.19-.98,2.19-2.19-.98-2.19-2.19-2.19Z"/></svg>